#N canvas 100 100 600 400 10;
#X obj 10 10 loadbang;
#X obj 10 40 delay 100;
#X msg 10 70 read -resize /home/mike/samples/test.wav sample;
#X obj 10 100 soundfiler;
#X obj 10 140 bang;
#X obj 10 170 tabplay~ sample;
#X obj 10 200 dac~;
#X obj 10 230 table sample;
#X connect 0 0 1 0;
#X connect 1 0 2 0;
#X connect 2 0 3 0;
#X connect 3 0 4 0;
#X connect 4 0 5 0;
#X connect 5 0 6 0;