#N canvas 100 100 600 500 10;
#X obj 50 50 netreceive -u -b 8000;
#X obj 50 78 oscparse;
#X obj 50 109 list trim;
#X obj 112 10 table sample1;
#X obj 211 10 table sample2;
#X obj 313 10 table sample3;
#X obj 416 10 table sample4;
#X obj 50 141 route loadsample;
#X obj 102 487 soundfiler;
#X obj 357 410 dac~;
#X msg 356 314 bang;
#X msg 409 314 stop;
#X obj 16 251 + 1;
#X obj 16 277 % 5;
#X obj 16 303 makefilename sample%d;
#X obj 16 190 t a b;
#X obj 16 328 list trim;
#X obj 16 220 count;
#X obj 50 366 join;
#X obj 50 393 list trim;
#X obj 10 10 table sample0;
#X obj 102 426 join;
#X msg 108 366 read -resize;
#X obj 102 456 list trim;
#X obj 7 487 print LOADED;
#X obj 360 354 tabplay~ sample0;
#X connect 0 0 1 0;
#X connect 1 0 2 0;
#X connect 2 0 7 0;
#X connect 7 0 15 0;
#X connect 7 0 18 0;
#X connect 7 0 22 0;
#X connect 10 0 25 0;
#X connect 11 0 25 0;
#X connect 12 0 13 0;
#X connect 13 0 14 0;
#X connect 14 0 16 0;
#X connect 15 1 17 0;
#X connect 16 0 18 1;
#X connect 17 0 12 0;
#X connect 18 0 19 0;
#X connect 19 0 21 1;
#X connect 21 0 23 0;
#X connect 22 0 21 0;
#X connect 23 0 8 0;
#X connect 23 0 24 0;
#X connect 23 0 10 0;
#X connect 25 0 9 0;
#X connect 25 0 9 1;
